<svg width="57" height="61" viewBox="0 0 57 61" fill="none" xmlns="http://www.w3.org/2000/svg">
<path fill-rule="evenodd" clip-rule="evenodd" d="M52.1965 55.2164C51.4934 58.0624 48.9152 60.0714 45.9688 60.0714H21.9286C19.25 60.0714 16.6719 58.7656 15.0647 56.6562L2.20759 39.5133C1.10268 38.0401 0.5 36.1986 0.5 34.357C0.5 29.6695 4.31697 25.7856 9.00447 25.7856C10.5447 25.7856 12.0514 26.1874 13.3572 26.9575V8.64273C13.3572 3.92174 17.2076 0.0712891 21.9286 0.0712891C26.7165 0.0712891 30.5 4.08915 30.5 8.84362V16.2097C30.5286 16.2071 30.5569 16.2045 30.585 16.2019C30.9204 16.1712 31.2317 16.1427 31.5715 16.1427C33.7478 16.1427 35.7902 16.9798 37.3639 18.453C38.4018 17.9843 39.5402 17.7499 40.6786 17.7499C43.0893 17.7499 45.3326 18.8213 46.8393 20.6628C47.4755 20.4954 48.0782 20.4285 48.7143 20.4285C52.9331 20.4285 56.2144 23.9441 56.2144 28.0959V35.3615C56.2144 37.8727 55.913 40.4173 55.2769 42.895L52.1965 55.2164ZM21.9286 55.7856H45.9688C46.9398 55.7856 47.8103 55.116 48.0447 54.1785L51.1251 41.8571C51.6608 39.7142 51.9286 37.5379 51.9286 35.3615V28.0959C51.9286 26.3213 50.5559 24.7142 48.7143 24.7142C46.9398 24.7142 45.5001 26.1539 45.5001 27.9285C45.5001 27.9285 45.6412 37.9699 45.5001 37.9699H44.4286V25.8861C44.4286 23.7767 42.8215 22.0356 40.6786 22.0356C38.6027 22.0356 36.9286 23.7097 36.9286 25.7856V37.9699H35.8572V24.9151C35.8572 22.5044 34.0157 20.4285 31.5715 20.4285C29.1942 20.4285 27.2857 22.3369 27.2857 24.7142V38.6428H26.2143V8.84362C26.2143 6.4329 24.3728 4.35701 21.9286 4.35701C19.5514 4.35701 17.6429 6.26549 17.6429 8.64273V38.6428L12.5871 31.8794C11.75 30.7745 10.4107 30.0713 9.00447 30.0713C6.66072 30.0713 4.78572 32.0468 4.78572 34.357C4.78572 35.2945 5.08706 36.1986 5.65626 36.9352L18.5134 54.0781C19.317 55.1495 20.5893 55.7856 21.9286 55.7856Z" fill="white"/>
</svg>
